<?xml version="1.0" encoding="iso-8859-1"?>
<!-- Generator: Adobe Illustrator 16.0.0, SVG Export Plug-In . SVG Version: 6.00 Build 0)  -->
<!DOCTYPE svg PUBLIC "-//W3C//DTD SVG 1.1//EN" "http://www.w3.org/Graphics/SVG/1.1/DTD/svg11.dtd">
<svg version="1.1" id="Capa_1" xmlns="http://www.w3.org/2000/svg" xmlns:xlink="http://www.w3.org/1999/xlink" x="0px" y="0px"
	 width="484.996px" height="484.996px" viewBox="0 0 484.996 484.996" style="enable-background:new 0 0 484.996 484.996;"
	 xml:space="preserve">
<g>
	<g id="_x34_2_6_">
		<g>
			<path d="M446.158,412.594v54.941h38.838v-93.779H38.838V214.617c0-5.055-1.895-9.633-5.684-13.736
				c-3.789-4.103-8.367-6.156-13.735-6.156c-5.368,0-9.946,2.053-13.735,6.156C1.895,204.986,0,209.565,0,214.617v252.918h38.838
				v-54.941H446.158L446.158,412.594z"/>
			<path d="M108.95,316.447c9.788,0,18.313-3.475,25.576-10.42c7.263-6.947,10.894-15.316,10.894-25.104
				c0-9.789-3.631-18.155-10.894-25.102c-7.263-6.946-15.788-10.421-25.576-10.421c-9.787,0-18.156,3.476-25.102,10.421
				c-6.946,6.946-10.42,15.313-10.42,25.102c0,9.789,3.474,18.158,10.42,25.104C90.794,312.973,99.163,316.447,108.95,316.447z"/>
			<g>
				<path d="M134.01,306.5H84.344c6.848,6.625,15.049,9.947,24.606,9.947C118.509,316.447,126.859,313.125,134.01,306.5z"/>
				<path d="M475.997,287.082c-5.372-4.736-12.161-7.736-20.366-9l-281.335-27.469h-1.895c-5.052,0-9.314,1.736-12.788,5.209
					c-3.474,3.475-5.21,7.736-5.21,12.789v48.553c-2.054-4.211-33.441,7.809-45.453,7.809c-12.086,0-22.56-4.346-31.13-12.916
					c-1.487-1.488-2.838-3.037-4.07-4.637c-7.613,2.459-13.125,9.594-13.125,18.025v8.525c0,10.463,8.482,18.944,18.945,18.944
					h2.842h54.972h346.665v-47.36C484.049,297.975,481.364,291.818,475.997,287.082z"/>
			</g>
			<g>
				<path d="M257.039,17.461c-38.441,0-69.605,31.174-69.605,69.613c0,38.42,31.164,69.584,69.605,69.584
					c38.433,0,69.587-31.164,69.587-69.584C326.626,48.635,295.472,17.461,257.039,17.461z M257.039,135.518
					c-26.728,0-48.475-21.734-48.475-48.447c0-26.744,21.747-48.492,48.475-48.492c26.727,0,48.456,21.752,48.456,48.492
					C305.491,113.783,283.762,135.518,257.039,135.518z"/>
				<path d="M263.02,83.232l0.004-26.873c0-3.303-2.674-5.969-5.984-5.969c-3.325,0-6.003,2.666-6.003,5.969v26.873v11.977v0.008
					h11.983v-0.008l26.875,0.008c3.297,0,5.982-2.674,5.982-5.99c0-3.32-2.688-5.994-5.982-5.994L263.02,83.232L263.02,83.232z"/>
			</g>
		</g>
	</g>
</g>
<g>
</g>
<g>
</g>
<g>
</g>
<g>
</g>
<g>
</g>
<g>
</g>
<g>
</g>
<g>
</g>
<g>
</g>
<g>
</g>
<g>
</g>
<g>
</g>
<g>
</g>
<g>
</g>
<g>
</g>
</svg>
