<svg id="Layer_1" enable-background="new 0 0 512.016 512.016" viewBox="0 0 512.016 512.016" xmlns="http://www.w3.org/2000/svg"><g><g><g><path d="m106.683 192.008c23.573 0 42.667-19.093 42.667-42.667 0-23.573-19.093-42.667-42.667-42.667-23.552 0-42.667 19.093-42.667 42.667s19.115 42.667 42.667 42.667z"/><path d="m160.016 426.675h-98.112l-40.811-183.638c-1.28-5.76-6.976-9.301-12.736-8.107-5.76 1.28-9.365 6.976-8.107 12.736l42.411 190.848v62.827c0 5.888 4.779 10.667 10.667 10.667s10.667-4.779 10.667-10.667v-53.333h64v53.333c0 5.888 4.779 10.667 10.667 10.667s10.667-4.779 10.667-10.667v-53.333h10.667c5.888 0 10.667-4.779 10.667-10.667-.002-5.888-4.759-10.666-10.647-10.666z"/><path d="m394.683.008c-64.704 0-117.333 52.629-117.333 117.333s52.629 117.333 117.333 117.333 117.333-52.629 117.333-117.333-52.629-117.333-117.333-117.333zm42.666 128h-42.667c-5.888 0-10.667-4.779-10.667-10.667v-64c0-5.888 4.779-10.667 10.667-10.667s10.667 4.779 10.667 10.667v53.333h32c5.888 0 10.667 4.779 10.667 10.667s-4.779 10.667-10.667 10.667z"/><path d="m224.016 341.341h-74.667v-85.333c0-23.531-19.136-42.667-42.667-42.667s-42.667 19.136-42.667 42.667v117.333c0 17.643 14.357 32 32 32h96v74.667c0 17.643 14.357 32 32 32s32-14.357 32-32v-106.667c.001-17.642-14.357-32-31.999-32z"/></g></g></g><g/><g/><g/><g/><g/><g/><g/><g/><g/><g/><g/><g/><g/><g/><g/></svg>